# xmcd
#
# Track frame offsets: 
#        150
#        15068
#        30098
#        65357
#        85263
#        109335
#        127611
#        137479
#        153547
#        179729
#        202373
#        227051
#        256229
#        267706
#        286045
#        310033
#
# Disc length: 4425 seconds
#
# Revision: 4
# Processed by: cddbd v1.5.2PL0 Copyright (c) Steve Scherf et al.
# Submitted via: ExactAudioCopy v1.0b4
#
DISCID=d2114710
DTITLE=The Climax Blues Band - 25 Years 1968-1993 [ disk 1]
DYEAR=1994
DGENRE=Blues Rock
TTITLE0=Don't Start Me Talking
TTITLE1=Wee Baby Blues
TTITLE2=Flight
TTITLE3=Hey Baby Everything's Gonna Be Alright
TTITLE4=Louisiana Blues
TTITLE5=Briefcase
TTITLE6=That's All
TTITLE7=Shoot Her If She Runs
TTITLE8=Rich Man
TTITLE9=Mole On The Dole
TTITLE10=Standing By A River
TTITLE11=Let's Work Together
TTITLE12=Losing The Humbles
TTITLE13=Shopping Bag People
TTITLE14=Running Out Of Time
TTITLE15=Mighty Fire
EXTD=
EXTT0=
EXTT1=
EXTT2=
EXTT3=
EXTT4=
EXTT5=
EXTT6=
EXTT7=
EXTT8=
EXTT9=
EXTT10=
EXTT11=
EXTT12=
EXTT13=
EXTT14=
EXTT15=
PLAYORDER=
